{"asset":{"version":"2.0","generator":"THREE.GLTFExporter r178"},"scenes":[{"nodes":[0]}],"scene":0,"nodes":[{"mesh":0}],"bufferViews":[{"buffer":0,"byteOffset":0,"byteLength":55548,"target":34962,"byteStride":12},{"buffer":0,"byteOffset":55548,"byteLength":9260,"target":34963}],"buffers":[{"byteLength":64808,"uri":"data:application/octet-stream;base64,"}],"accessors":[{"bufferView":0,"componentType":5126,"count":4629,"max":[65.5,0,65.5],"min":[-65.5,0,-65.5],"type":"VEC3"},{"bufferView":1,"componentType":5123,"count":4629,"max":[4628],"min":[0],"type":"SCALAR"}],"materials":[{"pbrMetallicRoughness":{"metallicFactor":0,"roughnessFactor":1}}],"meshes":[{"primitives":[{"mode":4,"attributes":{"POSITION":0},"indices":1,"material":0}]}]}